<svg width="17" height="29" viewBox="0 0 17 29" fill="none" xmlns="http://www.w3.org/2000/svg">
<path d="M8.08111 0C7.52883 1.04227e-06 7.08111 0.447715 7.08111 1L7.08111 24.7487L1.70711 19.3747C1.31658 18.9842 0.683417 18.9842 0.292893 19.3747C-0.0976311 19.7653 -0.0976309 20.3984 0.292893 20.7889L7.36396 27.86C7.75448 28.2505 8.38765 28.2505 8.77817 27.86L15.8492 20.7889C16.2398 20.3984 16.2398 19.7653 15.8492 19.3747C15.4587 18.9842 14.8256 18.9842 14.435 19.3747L9.08111 24.7487L9.08111 1C9.08111 0.447716 8.6334 3.01163e-07 8.08111 0Z" fill="white"/>
</svg>
