<svg width="26" height="29" viewBox="0 0 26 29" fill="none" xmlns="http://www.w3.org/2000/svg">
<path d="M11.7805 1C11.7805 0.447708 12.2283 0 12.7805 0C13.3328 0 13.7805 0.447708 13.7805 1V12.8353L16.3229 10.2929C16.7135 9.90237 17.3466 9.90237 17.7371 10.2929C18.1277 10.6834 18.1277 11.3166 17.7371 11.7071L13.4945 15.9498C13.104 16.3403 12.4708 16.3403 12.0803 15.9498L7.83766 11.7071C7.44713 11.3166 7.44713 10.6834 7.83766 10.2929C8.22816 9.90237 8.86134 9.90237 9.25184 10.2929L11.7805 12.8216V1Z" fill="white"/>
<path fill-rule="evenodd" clip-rule="evenodd" d="M22.9607 19C23.4374 19 23.8478 19.3365 23.9413 19.8039L25.5413 27.8039C25.6651 28.4227 25.1918 29 24.5607 29H1.00035C0.369275 29 -0.103992 28.4227 0.0197571 27.8039L1.61976 19.8039C1.71324 19.3365 2.12364 19 2.60032 19H22.9607ZM21.4334 21C21.9223 21 22.3394 21.3534 22.4198 21.8356L23.0865 25.8356C23.1881 26.4451 22.718 27 22.1001 27H3.46098C2.84306 27 2.373 26.4451 2.47459 25.8356L3.14128 21.8356C3.22163 21.3534 3.63881 21 4.12767 21H21.4334Z" fill="white"/>
</svg>
