<svg width="27" height="29" viewBox="0 0 27 29" fill="none" xmlns="http://www.w3.org/2000/svg">
<path fill-rule="evenodd" clip-rule="evenodd" d="M23.7133 15.7905C23.6145 15.3294 23.207 15 22.7355 15H4.35233C3.88079 15 3.47333 15.3294 3.37453 15.7905L0.803097 27.7905C0.669702 28.413 1.14426 29 1.7809 29H25.3069C25.9436 29 26.4181 28.413 26.2847 27.7905L23.7133 15.7905ZM22.2047 17.8039C22.1112 17.3365 21.7008 17 21.2241 17H5.86372C5.38704 17 4.97662 17.3365 4.88314 17.8039L3.28314 25.8039C3.15938 26.4227 3.63267 27 4.26372 27H22.8241C23.4552 27 23.9284 26.4227 23.8047 25.8039L22.2047 17.8039Z" fill="white"/>
<path d="M14.5577 11.2426C14.5577 11.7949 14.1099 12.2426 13.5577 12.2426C13.0054 12.2426 12.5577 11.7949 12.5577 11.2426L12.5577 3.40736L10.0153 5.94975C9.62475 6.34027 8.9916 6.34027 8.60106 5.94975C8.21053 5.55923 8.21053 4.92605 8.60106 4.53553L12.8437 0.292889C13.2342 -0.0976296 13.8674 -0.0976295 14.2579 0.292889L18.5005 4.53553C18.8911 4.92605 18.8911 5.55923 18.5005 5.94975C18.11 6.34027 17.4769 6.34027 17.0864 5.94975L14.5577 3.42108L14.5577 11.2426Z" fill="white"/>
</svg>
