<svg width="21" height="31" viewBox="0 0 21 31" fill="none" xmlns="http://www.w3.org/2000/svg">
<path d="M17.6035 15.0008L0.391289 1.7934C-0.0468675 1.45719 -0.129513 0.829446 0.206697 0.391289C0.542907 -0.0468678 1.17065 -0.129512 1.60881 0.206697L19.8121 14.1745C19.8971 14.2327 19.9744 14.3051 20.0405 14.3913C20.1802 14.5732 20.2475 14.7879 20.2472 15.0008C20.2475 15.2137 20.1802 15.4284 20.0405 15.6103C19.9744 15.6965 19.8971 15.7689 19.8121 15.8271L1.60881 29.7949C1.17065 30.1311 0.542907 30.0485 0.206697 29.6103C-0.129513 29.1722 -0.0468675 28.5444 0.391289 28.2082L17.6035 15.0008Z" fill="white"/>
</svg>
