<svg width="20" height="20" viewBox="0 0 20 20" fill="none" xmlns="http://www.w3.org/2000/svg">
<path d="M12.2412 10.7311C11.8374 10.3273 11.8374 9.6727 12.2412 9.26894L19.5759 1.93424C19.9796 1.53048 19.9796 0.875854 19.5759 0.472094L19.5279 0.42416C19.1242 0.0203991 18.4696 0.0203989 18.0658 0.42416L10.7311 7.75886C10.3273 8.16262 9.67271 8.16262 9.26894 7.75886L1.93424 0.424159C1.53048 0.0203977 0.875854 0.0203977 0.472094 0.424159L0.42416 0.472092C0.0203991 0.875853 0.020399 1.53048 0.42416 1.93424L7.75886 9.26894C8.16262 9.6727 8.16262 10.3273 7.75886 10.7311L0.424159 18.0658C0.0203977 18.4696 0.0203977 19.1242 0.424159 19.5279L0.472092 19.5759C0.875853 19.9796 1.53048 19.9796 1.93424 19.5759L9.26894 12.2412C9.6727 11.8374 10.3273 11.8374 10.7311 12.2412L18.0658 19.5759C18.4696 19.9796 19.1242 19.9796 19.5279 19.5759L19.5759 19.5279C19.9796 19.1242 19.9796 18.4696 19.5759 18.0658L12.2412 10.7311Z" fill="white"/>
</svg>
