<svg width="30" height="20" viewBox="0 0 30 20" fill="none" xmlns="http://www.w3.org/2000/svg">
<path d="M19.2092 0.429852L10.2274 17.3886L1.22272 0.386519C0.993518 -0.046287 0.565524 -0.127935 0.266782 0.204172C-0.0319606 0.536279 -0.0883051 1.15636 0.140943 1.58917L9.66412 19.5701C9.70378 19.6541 9.75313 19.7305 9.81189 19.7958C9.93594 19.9338 10.0823 20.0003 10.2274 20C10.2668 20.0001 10.3063 19.9952 10.3455 19.9854C10.4504 19.9589 10.5526 19.8963 10.643 19.7958C10.7018 19.7305 10.7511 19.6541 10.7908 19.5702L19.7725 2.61144L28.7773 19.6135C29.0065 20.0463 29.4345 20.1279 29.7332 19.7958C30.032 19.4637 30.0883 18.8436 29.8591 18.4108L20.3359 0.429852C20.3341 0.425949 20.3322 0.42209 20.3303 0.418216C20.2917 0.339041 20.2444 0.266813 20.1886 0.204655C20.1884 0.204489 20.1887 0.20482 20.1886 0.204655C20.0646 0.0668168 19.9176 -0.000225517 19.7725 5.69887e-07C19.7647 5.69887e-07 19.7571 0.000211585 19.7493 0.000618541C19.7186 0.00220115 19.6881 0.00675304 19.6578 0.0142591C19.5517 0.0402591 19.4483 0.102674 19.357 0.204172C19.2982 0.269466 19.2489 0.345899 19.2092 0.429852Z" fill="white"/>
</svg>
