<svg width="30" height="18" viewBox="0 0 30 18" fill="none" xmlns="http://www.w3.org/2000/svg">
<path d="M4 5C4 4.44771 4.44769 4 5 4C5.55231 4 6 4.44771 6 5C6 5.55229 5.55231 6 5 6C4.44769 6 4 5.55229 4 5Z" fill="white"/>
<path d="M5 12C4.44769 12 4 12.4477 4 13C4 13.5523 4.44769 14 5 14C5.55231 14 6 13.5523 6 13C6 12.4477 5.55231 12 5 12Z" fill="white"/>
<path d="M16 5C16 4.44771 16.4477 4 17 4C17.5523 4 18 4.44771 18 5C18 5.55229 17.5523 6 17 6C16.4477 6 16 5.55229 16 5Z" fill="white"/>
<path d="M9 4C8.44769 4 8 4.44771 8 5C8 5.55229 8.44769 6 9 6C9.55231 6 10 5.55229 10 5C10 4.44771 9.55231 4 9 4Z" fill="white"/>
<path d="M8 13C8 12.4477 8.44769 12 9 12H21C21.5523 12 22 12.4477 22 13C22 13.5523 21.5523 14 21 14H9C8.44769 14 8 13.5523 8 13Z" fill="white"/>
<path d="M21 4C20.4477 4 20 4.44771 20 5C20 5.55229 20.4477 6 21 6C21.5523 6 22 5.55229 22 5C22 4.44771 21.5523 4 21 4Z" fill="white"/>
<path d="M10 9C10 8.44771 10.4477 8 11 8C11.5523 8 12 8.44771 12 9C12 9.55229 11.5523 10 11 10C10.4477 10 10 9.55229 10 9Z" fill="white"/>
<path d="M23 8C22.4477 8 22 8.44771 22 9C22 9.55229 22.4477 10 23 10C23.5523 10 24 9.55229 24 9C24 8.44771 23.5523 8 23 8Z" fill="white"/>
<path d="M12 5C12 4.44771 12.4477 4 13 4C13.5523 4 14 4.44771 14 5C14 5.55229 13.5523 6 13 6C12.4477 6 12 5.55229 12 5Z" fill="white"/>
<path d="M25 4C24.4477 4 24 4.44771 24 5C24 5.55229 24.4477 6 25 6C25.5523 6 26 5.55229 26 5C26 4.44771 25.5523 4 25 4Z" fill="white"/>
<path d="M24 13C24 12.4477 24.4477 12 25 12C25.5523 12 26 12.4477 26 13C26 13.5523 25.5523 14 25 14C24.4477 14 24 13.5523 24 13Z" fill="white"/>
<path d="M15 8C14.4477 8 14 8.44771 14 9C14 9.55229 14.4477 10 15 10C15.5523 10 16 9.55229 16 9C16 8.44771 15.5523 8 15 8Z" fill="white"/>
<path d="M6 9C6 8.44771 6.44769 8 7 8C7.55231 8 8 8.44771 8 9C8 9.55229 7.55231 10 7 10C6.44769 10 6 9.55229 6 9Z" fill="white"/>
<path d="M19 8C18.4477 8 18 8.44771 18 9C18 9.55229 18.4477 10 19 10C19.5523 10 20 9.55229 20 9C20 8.44771 19.5523 8 19 8Z" fill="white"/>
<path fill-rule="evenodd" clip-rule="evenodd" d="M1 0C0.447693 0 0 0.447708 0 1V17C0 17.5523 0.447693 18 1 18H29C29.5523 18 30 17.5523 30 17V1C30 0.447708 29.5523 0 29 0H1ZM3 2C2.44769 2 2 2.44771 2 3V15C2 15.5523 2.44769 16 3 16H27C27.5523 16 28 15.5523 28 15V3C28 2.44771 27.5523 2 27 2H3Z" fill="white"/>
</svg>
