<svg width="32" height="17" viewBox="0 0 32 17" fill="none" xmlns="http://www.w3.org/2000/svg">
<path d="M16.8421 0.894737C16.8421 0.400595 16.4651 0 16 0C15.5349 0 15.1579 0.400595 15.1579 0.894737V1.79218C15.1579 2.2802 15.5407 2.68112 16 2.68421H16.0039C16.4633 2.68416 16.8421 2.28725 16.8421 1.79917V0.894737Z" fill="white"/>
<path d="M22.2767 3.65952C22.0556 4.06651 22.1944 4.58564 22.5678 4.83761C22.9649 5.10561 23.5001 4.98705 23.7353 4.55415L24.3082 3.49982C24.5408 3.07186 24.4028 2.52467 24 2.27758C23.5972 2.0305 23.0822 2.17713 22.8497 2.60508L22.2767 3.65952Z" fill="white"/>
<path d="M27.1445 10.1179C26.9388 9.70135 27.0639 9.17982 27.4474 8.94461L28.7061 8.1725C29.1088 7.92542 29.6239 8.07205 29.8564 8.5C30.0889 8.92795 29.9509 9.47515 29.5482 9.72224L28.2898 10.4942C27.8828 10.7438 27.3629 10.56 27.1445 10.1179Z" fill="white"/>
<path d="M29.4711 15.2105C29.0118 15.2105 28.6345 15.6172 28.6316 16.1052V16.1094C28.6316 16.6009 29.0019 17 29.4644 17H31.1579C31.623 17 32 16.5994 32 16.1053C32 15.6111 31.623 15.2105 31.1579 15.2105H29.4711Z" fill="white"/>
<path d="M2.52632 16.1053C2.52632 16.5994 2.14929 17 1.68421 17H0.842105C0.37703 17 0 16.5994 0 16.1053C0 15.6111 0.37703 15.2105 0.842105 15.2105H1.68421C2.14929 15.2105 2.52632 15.6111 2.52632 16.1053Z" fill="white"/>
<path d="M3.06939 10.1011C3.46757 10.3453 3.97607 10.1753 4.20192 9.74976C4.42439 9.33062 4.30387 8.792 3.91165 8.55142L3.29392 8.17247C2.89114 7.92539 2.37613 8.07202 2.14358 8.49997C1.91103 8.92793 2.04903 9.47512 2.45181 9.72221L3.06939 10.1011Z" fill="white"/>
<path d="M9.17624 4.46454C8.78176 4.70092 8.27485 4.57283 8.04839 4.15612L7.69177 3.49982C7.45922 3.07186 7.59722 2.52467 8 2.27758C8.40278 2.0305 8.91779 2.17713 9.15034 2.60508L9.50689 3.26122C9.73677 3.68429 9.57671 4.22455 9.17624 4.46454Z" fill="white"/>
<path d="M4.21053 16.5526C4.21053 16.8024 4.4043 17 4.63934 17H5.48255C5.7122 17 5.89474 16.7966 5.89474 16.5526C5.89474 10.8699 10.2305 6.26316 15.5789 6.26316C20.9274 6.26316 25.2632 10.8699 25.2632 16.5526C25.2632 16.7966 25.4457 17 25.6753 17H26.5186C26.7536 17 26.9474 16.8024 26.9474 16.5526C26.9474 9.88162 21.8576 4.47368 15.5789 4.47368C9.30034 4.47368 4.21053 9.88162 4.21053 16.5526Z" fill="white"/>
</svg>
