<svg width="20" height="30" viewBox="0 0 20 30" fill="none" xmlns="http://www.w3.org/2000/svg">
<path d="M11.1667 13.8333C11.1667 14.3856 11.6144 14.8333 12.1667 14.8333H15C15.5523 14.8333 16 15.2811 16 15.8333V16.1667C16 16.7189 15.5523 17.1667 15 17.1667H12.1667C11.6144 17.1667 11.1667 17.6144 11.1667 18.1667V21C11.1667 21.5523 10.719 22 10.1667 22H9.83334C9.28104 22 8.83334 21.5523 8.83334 21V18.1667C8.83334 17.6144 8.38562 17.1667 7.83334 17.1667H5C4.44772 17.1667 4 16.7189 4 16.1667V15.8333C4 15.281 4.44772 14.8333 5 14.8333H7.83334C8.38562 14.8333 8.83334 14.3856 8.83334 13.8333V11C8.83334 10.4477 9.28104 10 9.83334 10H10.1667C10.719 10 11.1667 10.4477 11.1667 11V13.8333Z" fill="white"/>
<path fill-rule="evenodd" clip-rule="evenodd" d="M20 5.41422V29C20 29.5523 19.5523 30 19 30H1C0.447723 30 0 29.5523 0 29V1C0 0.447716 0.447723 0 1 0H14.5858C14.851 0 15.1053 0.105354 15.2929 0.292892L19.7071 4.70711C19.8947 4.89465 20 5.14899 20 5.41422ZM17 28H3C2.44772 28 2 27.5523 2 27V3C2 2.44772 2.44772 2 3 2H13.5858C13.851 2 14.1053 2.10535 14.2929 2.29289L17.7071 5.70711C17.8947 5.89465 18 6.14899 18 6.41422V27C18 27.5523 17.5523 28 17 28Z" fill="white"/>
</svg>
