<svg width="25" height="35" viewBox="0 0 25 35" fill="none" xmlns="http://www.w3.org/2000/svg">
<path fill-rule="evenodd" clip-rule="evenodd" d="M25 29V5.41422C25 5.14899 24.8947 4.89465 24.7071 4.70711L20.2929 0.292892C20.1053 0.105354 19.851 0 19.5858 0H6C5.44772 0 5 0.447716 5 1V5H1C0.447723 5 0 5.44772 0 6V34C0 34.5523 0.447723 35 1 35H19C19.5523 35 20 34.5523 20 34V30H24C24.5523 30 25 29.5523 25 29ZM5 29V7H3C2.44772 7 2 7.44772 2 8V32C2 32.5523 2.44772 33 3 33H17C17.5523 33 18 32.5523 18 32V30H6C5.44772 30 5 29.5523 5 29ZM7 3C7 2.44772 7.44772 2 8 2H18.5858C18.851 2 19.1053 2.10535 19.2929 2.29289L22.7071 5.70711C22.8947 5.89465 23 6.14899 23 6.41422V27C23 27.5523 22.5523 28 22 28H8C7.44772 28 7 27.5523 7 27V3Z" fill="white"/>
</svg>
