<svg width="26" height="26" viewBox="0 0 26 26" fill="none" xmlns="http://www.w3.org/2000/svg">
<path fill-rule="evenodd" clip-rule="evenodd" d="M25.3241 5.94975C25.7146 5.55922 25.7146 3.51184 25.3241 3.12132L22.4956 0.292893C22.1051 -0.0976311 20.0577 -0.0976311 19.6672 0.292893L0.823379 19.1367C0.662815 19.2973 0.561678 19.5077 0.536602 19.7334L0.00627223 24.5064C-0.0644959 25.1433 0.473674 25.6815 1.11059 25.6107L5.88356 25.0804C6.10924 25.0553 6.31967 24.9542 6.48023 24.7936L25.3241 5.94975ZM2.23759 20.551C2.07703 20.7115 1.97589 20.9219 1.95082 21.1476L1.77404 22.7386C1.70327 23.3755 2.24144 23.9137 2.87835 23.8429L4.46934 23.6662C4.69503 23.6411 4.90546 23.5399 5.06602 23.3794L18.9601 9.48528C19.3506 9.09476 19.3506 8.46159 18.9601 8.07107L17.5459 6.65685C17.1554 6.26633 16.5222 6.26633 16.1317 6.65685L2.23759 20.551ZM18.9601 5.24264C18.5696 4.85212 18.5696 4.21895 18.9601 3.82843L20.3743 2.41421C20.7649 2.02369 21.398 2.02369 21.7885 2.41421L23.2028 3.82843C23.5933 4.21895 23.5933 4.85212 23.2028 5.24264L21.7885 6.65685C21.398 7.04738 20.7649 7.04738 20.3743 6.65685L18.9601 5.24264Z" fill="white"/>
</svg>
