<svg width="24" height="24" viewBox="0 0 24 24" fill="none" xmlns="http://www.w3.org/2000/svg">
<path d="M14 11C13.4477 11 13 10.5523 13 10V1C13 0.447715 12.5523 0 12 0V0C11.4477 0 11 0.447715 11 1V10C11 10.5523 10.5523 11 10 11H1C0.447715 11 0 11.4477 0 12V12C0 12.5523 0.447715 13 1 13H10C10.5523 13 11 13.4477 11 14V23C11 23.5523 11.4477 24 12 24V24C12.5523 24 13 23.5523 13 23V14C13 13.4477 13.4477 13 14 13H23C23.5523 13 24 12.5523 24 12V12C24 11.4477 23.5523 11 23 11H14Z" fill="white"/>
</svg>
