<svg width="29" height="29" viewBox="0 0 29 29" fill="none" xmlns="http://www.w3.org/2000/svg">
<path d="M1.70711 0.292893C1.31658 -0.0976312 0.683418 -0.0976308 0.292894 0.292893C-0.0976295 0.683417 -0.0976296 1.31658 0.292895 1.70711L12.7279 14.1421L0.292893 26.5772C-0.0976312 26.9677 -0.0976308 27.6009 0.292893 27.9914C0.683417 28.3819 1.31658 28.3819 1.70711 27.9914L14.8492 14.8492C15.2398 14.4587 15.2398 13.8256 14.8492 13.435L1.70711 0.292893Z" fill="white"/>
<path d="M13 26.1422C13 25.5899 13.4477 25.1422 14 25.1422L28 25.1422C28.5523 25.1422 29 25.5899 29 26.1422C29 26.6944 28.5523 27.1421 28 27.1422H14C13.4477 27.1422 13 26.6944 13 26.1422Z" fill="white"/>
</svg>
