<svg width="29" height="28" viewBox="0 0 29 28" fill="none" xmlns="http://www.w3.org/2000/svg">
<path d="M5.62107 8.54176C5.90469 8.54176 6.17497 8.42132 6.36462 8.21043L11.2564 2.77086C11.8694 2.08927 13 2.52287 13 3.43954V24.4332C13 25.3219 11.9274 25.7691 11.2961 25.1435L6.359 20.2508C6.17173 20.0652 5.91875 19.9611 5.6551 19.9611H1C0.447716 19.9611 0 19.5134 0 18.9611V9.54176C0 8.98947 0.447715 8.54176 1 8.54176H5.62107Z" fill="white"/>
<path d="M18.3978 1.67756C17.9388 1.54349 17.6479 1.07591 17.7691 0.613287C17.8833 0.177077 18.3232 -0.0934159 18.7569 0.0299035C24.6644 1.70954 29 7.25278 29 13.8321C29 20.4114 24.6644 25.9546 18.7569 27.6343C18.3232 27.7576 17.8834 27.4871 17.7691 27.0509C17.6479 26.5883 17.9388 26.1207 18.3978 25.9866C23.5679 24.4765 27.3529 19.6065 27.3529 13.8321C27.3529 8.05762 23.5679 3.18765 18.3978 1.67756Z" fill="white"/>
<path d="M17.5596 4.9389C17.0964 4.79955 16.796 4.32881 16.9186 3.86083C17.0313 3.43043 17.4626 3.16001 17.8903 3.28243C22.399 4.57279 25.7059 8.80732 25.7059 13.8321C25.7059 18.8568 22.3989 23.0914 17.8903 24.3817C17.4626 24.5041 17.0313 24.2337 16.9186 23.8033C16.796 23.3353 17.0964 22.8646 17.5596 22.7253C21.3163 21.5952 24.0588 18.0413 24.0588 13.8321C24.0588 9.62281 21.3163 6.06892 17.5596 4.9389Z" fill="white"/>
<path d="M16.7371 8.20654C16.2664 8.05455 15.9452 7.57774 16.0705 7.09927C16.1801 6.68085 16.5944 6.41153 17.0101 6.53108C20.1268 7.4275 22.4118 10.3568 22.4118 13.8321C22.4118 17.3074 20.1268 20.2367 17.0101 21.1331C16.5944 21.2526 16.1801 20.9833 16.0705 20.5649C15.9452 20.0864 16.2664 19.6096 16.7371 19.4576C19.0719 18.7036 20.7647 16.4701 20.7647 13.8321C20.7647 11.194 19.0719 8.96053 16.7371 8.20654Z" fill="white"/>
<path d="M15 11.2002C15 11.1912 15.0011 11.1824 15.0034 11.1738L15.1888 10.466C15.3134 9.98997 15.7721 9.66252 16.2404 9.81369C17.9083 10.3521 19.1176 11.9476 19.1176 13.8321C19.1176 15.7165 17.9083 17.312 16.2404 17.8505C15.7721 18.0016 15.3134 17.6742 15.1888 17.1981L15.0034 16.4904C15.0011 16.4818 15 16.4729 15 16.464C15 16.4065 15.0468 16.36 15.1043 16.3576C16.4204 16.3017 17.4706 15.1924 17.4706 13.8321C17.4706 12.4718 16.4204 11.3625 15.1043 11.3066C15.0468 11.3041 15 11.2577 15 11.2002Z" fill="white"/>
</svg>
