<svg width="27" height="27" viewBox="0 0 27 27" fill="none" xmlns="http://www.w3.org/2000/svg">
<path d="M6.02832 14.75C6.22363 14.8965 6.32129 15.1081 6.32129 15.3848C6.32129 15.6387 6.22363 15.8372 6.02832 15.9805C5.83301 16.1204 5.5612 16.1904 5.21289 16.1904C4.27539 16.1904 3.80664 15.7982 3.80664 15.0137H2.33691C2.33691 15.4727 2.4541 15.8763 2.68848 16.2246C2.92611 16.5729 3.26953 16.848 3.71875 17.0498C4.16797 17.2484 4.66602 17.3477 5.21289 17.3477C6.00065 17.3477 6.62728 17.1735 7.09277 16.8252C7.55827 16.4736 7.79102 15.9902 7.79102 15.375C7.79102 14.8216 7.60059 14.3594 7.21973 13.9883C6.83887 13.6172 6.23177 13.3063 5.39844 13.0557C4.94596 12.9189 4.60254 12.7725 4.36816 12.6162C4.13704 12.46 4.02148 12.2663 4.02148 12.0352C4.02148 11.7878 4.12077 11.5892 4.31934 11.4395C4.5179 11.2865 4.79622 11.21 5.1543 11.21C5.52539 11.21 5.81348 11.3011 6.01855 11.4834C6.22363 11.6624 6.32617 11.9147 6.32617 12.2402H7.79102C7.79102 11.9083 7.72394 11.6039 7.58978 11.3271H9.59609V17.25H11.0609V11.3271H13.2387V10.1406H7.44766V11.0804C7.23028 10.7535 6.92644 10.5004 6.53613 10.3213C6.139 10.1357 5.68652 10.043 5.17871 10.043C4.67415 10.043 4.21842 10.1276 3.81152 10.2969C3.40788 10.4661 3.09701 10.7021 2.87891 11.0049C2.66406 11.3044 2.55664 11.6462 2.55664 12.0303C2.55664 12.7692 2.96029 13.3568 3.76758 13.793C4.0638 13.9525 4.46582 14.1152 4.97363 14.2812C5.48145 14.444 5.83301 14.6003 6.02832 14.75Z" fill="white"/>
<path fill-rule="evenodd" clip-rule="evenodd" d="M18.5105 15.6973C18.7579 15.1699 18.8816 14.5563 18.8816 13.8564V13.5391C18.8816 12.8424 18.7547 12.2288 18.5008 11.6982C18.2501 11.1644 17.8937 10.7559 17.4314 10.4727C16.9725 10.1862 16.4467 10.043 15.8543 10.043C15.2618 10.043 14.7345 10.1862 14.2723 10.4727C13.8133 10.7559 13.4568 11.1644 13.2029 11.6982C12.9523 12.2288 12.827 12.8441 12.827 13.5439V13.8955C12.8302 14.5791 12.9588 15.1846 13.2127 15.7119C13.4666 16.236 13.8247 16.6396 14.2869 16.9229C14.7492 17.2061 15.2749 17.3477 15.8641 17.3477C16.4598 17.3477 16.9871 17.2044 17.4461 16.918C17.9083 16.6315 18.2632 16.2246 18.5105 15.6973ZM16.9969 11.835C17.2638 12.2223 17.3973 12.7887 17.3973 13.5342V13.8809C17.394 14.6198 17.2605 15.1829 16.9969 15.5703C16.7332 15.9544 16.3556 16.1465 15.8641 16.1465C15.3628 16.1465 14.9786 15.9463 14.7117 15.5459C14.4448 15.1455 14.3113 14.5824 14.3113 13.8564V13.5098C14.3146 12.7708 14.4497 12.2109 14.7166 11.8301C14.9835 11.446 15.3628 11.2539 15.8543 11.2539C16.3491 11.2539 16.7299 11.4476 16.9969 11.835Z" fill="white"/>
<path fill-rule="evenodd" clip-rule="evenodd" d="M20.5109 17.25V14.7451H21.7951C22.6382 14.7451 23.2974 14.5449 23.7727 14.1445C24.2512 13.7409 24.4904 13.1908 24.4904 12.4941C24.4904 12.0352 24.3814 11.6266 24.1633 11.2686C23.9452 10.9072 23.6327 10.6289 23.2258 10.4336C22.8221 10.2383 22.3534 10.1406 21.8195 10.1406H19.0461V17.25H20.5109ZM21.8195 13.5586H20.5109V11.3271H21.8537C22.215 11.3337 22.4982 11.4443 22.7033 11.6592C22.9084 11.874 23.0109 12.1556 23.0109 12.5039C23.0109 12.8424 22.9084 13.1029 22.7033 13.2852C22.5015 13.4674 22.2069 13.5586 21.8195 13.5586Z" fill="white"/>
<path fill-rule="evenodd" clip-rule="evenodd" d="M8.5 0H18.5L27 8.5V18.5L18.5 27H8.5L0 18.5V8.5L8.5 0ZM9.24072 2H17.7593L25 9.24074V17.7593L17.7593 25H9.24072L2 17.7593V9.24074L9.24072 2Z" fill="white"/>
</svg>
